<svg width="13" height="14" viewBox="0 0 13 14" fill="none" xmlns="http://www.w3.org/2000/svg">
<path d="M11.2554 12.4877C10.7484 12.9847 10.2167 13.5984 8.82543 14C11 10 9.5304 8.62147 7.12697 6.275C7.5 7.5 7 9 6 9.5C5 9.5 4.98518 8.72416 4.98518 8.72416C3.76577 10.292 2.5 11.5 3.74468 14C3.5 14 2.44055 13.3938 2.03397 13.0738C-0.0462348 11.4378 -0.492965 9.83927 0.520599 7.48118C1.5 5.5 2 5 2.5 4.5C2.5 5 2.5 5.5 3.03018 5.61201C4.5 4.5 5.5 2.5 5.37747 0C8 1 8.5 2 9.24766 3.06952C9.25821 3.08083 9.2691 3.09181 9.27998 3.10279C9.28066 3.10085 9.28134 3.09891 9.28203 3.09697C9.28645 3.08341 9.28203 2.23678 10 2C11 3.5 12.1182 5.28585 12.6208 6.69256C13.4108 8.9034 12.9715 10.8055 11.2554 12.4877Z" fill="url(#paint0_linear_801_172)"/>
<defs>
<linearGradient id="paint0_linear_801_172" x1="6.15533e-08" y1="0.372339" x2="13.8198" y2="1.28466" gradientUnits="userSpaceOnUse">
<stop stop-color="#E95508"/>
<stop offset="0.470384" stop-color="#DB3522"/>
<stop offset="1" stop-color="#C9120F"/>
</linearGradient>
</defs>
</svg>
