<svg width="19" height="18" viewBox="0 0 19 18" fill="none" xmlns="http://www.w3.org/2000/svg">
<path d="M9.5 3C11.3098 3.00002 12.9312 3.8023 14.0312 5.06944C13.9986 5.0883 13.9675 5.11061 13.9392 5.13715L9.25 9.53906L7.06076 7.48438C6.86551 7.30107 6.54855 7.30107 6.3533 7.48438L5.6467 8.14757C5.45145 8.33087 5.45145 8.62835 5.6467 8.81163L8.8967 11.862C9.09184 12.0452 9.408 12.0458 9.6033 11.8628L15.0582 6.74132C15.3418 7.43868 15.5 8.20075 15.5 9C15.5 12.3136 12.8136 15 9.5 15C6.18632 15 3.50004 12.3137 3.5 9C3.5 5.68629 6.18629 3 9.5 3Z" fill="#AADB1E"/>
</svg>
