<svg width="19" height="18" viewBox="0 0 19 18" fill="none" xmlns="http://www.w3.org/2000/svg">
<path d="M14.3552 11.6024C14.5429 11.7901 14.5429 12.0937 14.3552 12.2814L12.7734 13.8592C12.5857 14.0469 12.2821 14.0469 12.0944 13.8592L9.498 11.2389L6.89764 13.8592C6.70991 14.0469 6.40633 14.0469 6.21859 13.8592L4.6408 12.2774C4.45307 12.0897 4.45307 11.7861 4.6408 11.5984L7.26113 9.002L4.6408 6.40164C4.45307 6.2139 4.45307 5.91032 4.6408 5.72259L6.22259 4.1408C6.41033 3.95307 6.7139 3.95307 6.90164 4.1408L9.498 6.76513L12.0984 4.1448C12.2861 3.95706 12.5897 3.95706 12.7774 4.1448L14.3592 5.72658C14.5469 5.91432 14.5469 6.21789 14.3592 6.40563L11.7349 9.002L14.3552 11.6024Z" fill="#C91D1D"/>
</svg>
