<svg width="48" height="48" viewBox="0 0 48 48" fill="none" xmlns="http://www.w3.org/2000/svg">
<g clip-path="url(#clip0_2633_231)">
<path d="M24 0C10.7438 0 0 10.7438 0 24C0 37.2563 10.7438 48 24 48C37.2525 48 48 37.2563 48 24C48 10.7438 37.2563 0 24 0ZM23.1863 41.175L20.8837 41.1713H20.88C20.58 41.1713 20.3363 40.9275 20.3363 40.6275V40.6238L20.3438 37.7287C20.3438 36.945 19.875 36.24 19.1512 35.9363C19.1437 35.9325 19.1325 35.9288 19.125 35.925C18.405 35.625 17.5688 35.7863 17.01 36.3413L14.91 38.4375L14.9063 38.4413C14.6963 38.6513 14.3513 38.6513 14.1375 38.4375L12.4275 36.72L11.28 35.565L9.6525 33.9375V33.9337C9.4425 33.7237 9.4425 33.3788 9.65625 33.165L11.685 31.14C12.2737 30.555 12.4538 29.67 12.1388 28.9013L12.1275 28.8788C11.8125 28.1063 11.0625 27.6 10.23 27.6L7.365 27.5925C7.065 27.5925 6.82125 27.3488 6.82125 27.0488V27.045L6.825 24.8025H15.0938C15.1163 25.0763 15.1538 25.3463 15.2025 25.62C15.3038 26.16 15.4537 26.7 15.66 27.2288C16.0237 28.155 16.5225 28.9875 17.1225 29.7113C17.475 30.1313 17.8613 30.5213 18.2775 30.8625C19.6688 32.0175 21.3863 32.73 23.1863 32.8988V41.175ZM41.1713 27.2963C41.1713 27.5963 40.9275 27.84 40.6275 27.84H40.6238L37.8 27.8363C37.0013 27.8325 36.2962 28.32 35.9812 29.055C35.9775 29.0625 35.9737 29.0738 35.97 29.0813C35.6512 29.8275 35.7975 30.6975 36.3713 31.2712L38.3137 33.2175C38.4225 33.3225 38.475 33.4613 38.475 33.6C38.475 33.7388 38.4225 33.8775 38.3137 33.9862H38.31L36.7238 35.5688L35.5688 36.72L33.81 38.4713L33.8062 38.475C33.5962 38.685 33.2513 38.685 33.0375 38.4713L30.9487 36.375C30.4275 35.85 29.64 35.6925 28.9575 35.97C28.95 35.9737 28.9425 35.9775 28.935 35.9812C28.2413 36.2587 27.7913 36.93 27.7875 37.6763L27.7837 40.6388V40.6425C27.78 40.9425 27.54 41.1863 27.24 41.1863H27.2363L24.8175 41.1825V32.91C25.6275 32.8388 26.445 32.6475 27.24 32.34C27.5925 32.205 27.93 32.0475 28.2563 31.8713C28.9388 32.3363 29.835 32.4638 30.66 32.145C30.7425 32.1113 30.8175 32.0775 30.8925 32.04C31.3913 31.7925 31.7925 31.3913 32.0437 30.8888C32.0625 30.8475 32.085 30.8063 32.1038 30.765C32.385 30.1275 32.4 29.4188 32.1488 28.77C32.0775 28.5863 31.9838 28.41 31.875 28.2488C31.6012 27.8475 31.2225 27.5288 30.7688 27.3263C30.6975 27.2963 30.63 27.27 30.5588 27.2475C29.9775 27.0488 29.3513 27.06 28.7738 27.2813C28.695 27.315 28.6163 27.3487 28.545 27.3862C28.0313 27.645 27.6375 28.0538 27.39 28.5375C27.2063 28.9013 27.1125 29.3025 27.1125 29.7188C27.1125 29.9963 27.1575 30.2813 27.2512 30.555C27.0562 30.6525 26.8575 30.7388 26.6513 30.8175C26.055 31.05 25.4363 31.2037 24.8175 31.2712C24.2738 31.3312 23.73 31.3312 23.19 31.2712C22.4625 31.1887 21.7425 30.9975 21.0525 30.69C20.4638 30.4312 19.9237 30.1013 19.4325 29.715C19.1775 29.5125 18.9375 29.2913 18.7125 29.0588C18.5625 28.8975 18.42 28.7363 18.285 28.5675C17.8275 27.9938 17.4562 27.3487 17.1825 26.6475C16.9462 26.0437 16.8 25.4287 16.7288 24.8137C16.6688 24.27 16.6725 23.7225 16.7325 23.1863H6.825L6.8325 20.7037V20.7C6.8325 20.4 7.07625 20.1563 7.37625 20.1563H7.38L10.4175 20.1638C11.1863 20.1675 11.88 19.7063 12.18 18.9975L12.1913 18.9713C12.4913 18.2588 12.3338 17.43 11.7825 16.8787L9.69375 14.7788C9.585 14.6738 9.5325 14.535 9.5325 14.3962C9.5325 14.2575 9.585 14.1188 9.69375 14.01V14.0062L11.2837 12.4275L12.4387 11.2763L14.1975 9.525C14.4075 9.315 14.7525 9.315 14.9663 9.52875L17.13 11.7C17.6438 12.2175 18.42 12.3713 19.0913 12.09L19.1175 12.0787C19.7813 11.8012 20.2163 11.1525 20.2163 10.4288L20.2237 7.36125C20.2237 7.06125 20.4675 6.8175 20.7675 6.8175L23.19 6.82125V15.09C22.38 15.1613 21.5625 15.3525 20.7638 15.66C20.4113 15.795 20.0738 15.9525 19.7513 16.125C19.065 15.6638 18.1725 15.5325 17.3438 15.8513C17.265 15.885 17.1863 15.915 17.1113 15.9525C16.6125 16.2038 16.2113 16.605 15.96 17.1075C15.9413 17.1487 15.9188 17.19 15.9038 17.2312C15.7575 17.5687 15.6788 17.925 15.6788 18.2813C15.6788 18.6 15.735 18.9188 15.855 19.2263C15.93 19.41 16.02 19.59 16.1325 19.7513C16.4025 20.1525 16.7775 20.4675 17.235 20.6663C17.3062 20.7 17.3775 20.7225 17.445 20.7488C18.0263 20.9475 18.6525 20.9325 19.2263 20.7075C19.3088 20.6738 19.3838 20.6438 19.4588 20.6063C19.9688 20.3475 20.3662 19.935 20.61 19.4513C20.9137 18.8438 20.985 18.12 20.7525 17.4375C20.9475 17.34 21.1462 17.2538 21.3487 17.175C21.9562 16.9388 22.5713 16.7887 23.1863 16.7212C23.7338 16.6612 24.2775 16.6612 24.8137 16.7212C26.1862 16.8787 27.4875 17.4188 28.5637 18.2775C28.9875 18.615 29.3738 18.9975 29.7188 19.425C30.1725 19.9912 30.5437 20.6325 30.825 21.345C31.0537 21.9412 31.2075 22.56 31.2788 23.1788C31.3125 23.4525 31.3237 23.7225 31.3237 23.9963C31.3237 24.2663 31.3088 24.54 31.2788 24.8063H41.1788L41.1713 27.2963ZM41.1788 23.1825H32.9137C32.8387 22.3612 32.6475 21.5475 32.34 20.76C31.98 19.8338 31.4812 18.9975 30.8775 18.2738C30.5287 17.8538 30.1425 17.4675 29.7262 17.1225C28.335 15.9675 26.6175 15.255 24.8175 15.0863V6.825L27.12 6.82875C27.42 6.82875 27.6637 7.0725 27.6637 7.3725V7.37625L27.66 10.1625C27.6563 10.9725 28.1513 11.7075 28.905 12.0075L28.9313 12.0188C29.6663 12.315 30.5062 12.1425 31.065 11.5838L33.0975 9.55875C33.2025 9.45 33.3413 9.3975 33.48 9.3975C33.6188 9.3975 33.7575 9.45 33.8663 9.55875H33.87L35.5762 11.2763L36.7275 12.4313L38.3513 14.0625H38.355C38.565 14.2725 38.565 14.6175 38.3513 14.8313V14.835L36.4688 16.71C35.8538 17.3213 35.6925 18.24 36.0263 19.0388C36.0338 19.0463 36.0338 19.0575 36.0375 19.065C36.3675 19.86 37.1288 20.3925 37.9875 20.3925L40.6462 20.4C40.9462 20.4 41.19 20.6437 41.19 20.9437V20.9513L41.1788 23.1825Z" fill="url(#paint0_radial_2633_231)"/>
<path d="M24 0C10.7438 0 0 10.7438 0 24C0 37.2563 10.7438 48 24 48C37.2525 48 48 37.2563 48 24C48 10.7438 37.2563 0 24 0ZM23.1863 41.175L20.8837 41.1713H20.88C20.58 41.1713 20.3363 40.9275 20.3363 40.6275V40.6238L20.3438 37.7287C20.3438 36.945 19.875 36.24 19.1512 35.9363C19.1437 35.9325 19.1325 35.9288 19.125 35.925C18.405 35.625 17.5688 35.7863 17.01 36.3413L14.91 38.4375L14.9063 38.4413C14.6963 38.6513 14.3513 38.6513 14.1375 38.4375L12.4275 36.72L11.28 35.565L9.6525 33.9375V33.9337C9.4425 33.7237 9.4425 33.3788 9.65625 33.165L11.685 31.14C12.2737 30.555 12.4538 29.67 12.1388 28.9013L12.1275 28.8788C11.8125 28.1063 11.0625 27.6 10.23 27.6L7.365 27.5925C7.065 27.5925 6.82125 27.3488 6.82125 27.0488V27.045L6.825 24.8025H15.0938C15.1163 25.0763 15.1538 25.3463 15.2025 25.62C15.3038 26.16 15.4537 26.7 15.66 27.2288C16.0237 28.155 16.5225 28.9875 17.1225 29.7113C17.475 30.1313 17.8613 30.5213 18.2775 30.8625C19.6688 32.0175 21.3863 32.73 23.1863 32.8988V41.175ZM41.1713 27.2963C41.1713 27.5963 40.9275 27.84 40.6275 27.84H40.6238L37.8 27.8363C37.0013 27.8325 36.2962 28.32 35.9812 29.055C35.9775 29.0625 35.9737 29.0738 35.97 29.0813C35.6512 29.8275 35.7975 30.6975 36.3713 31.2712L38.3137 33.2175C38.4225 33.3225 38.475 33.4613 38.475 33.6C38.475 33.7388 38.4225 33.8775 38.3137 33.9862H38.31L36.7238 35.5688L35.5688 36.72L33.81 38.4713L33.8062 38.475C33.5962 38.685 33.2513 38.685 33.0375 38.4713L30.9487 36.375C30.4275 35.85 29.64 35.6925 28.9575 35.97C28.95 35.9737 28.9425 35.9775 28.935 35.9812C28.2413 36.2587 27.7913 36.93 27.7875 37.6763L27.7837 40.6388V40.6425C27.78 40.9425 27.54 41.1863 27.24 41.1863H27.2363L24.8175 41.1825V32.91C25.6275 32.8388 26.445 32.6475 27.24 32.34C27.5925 32.205 27.93 32.0475 28.2563 31.8713C28.9388 32.3363 29.835 32.4638 30.66 32.145C30.7425 32.1113 30.8175 32.0775 30.8925 32.04C31.3913 31.7925 31.7925 31.3913 32.0437 30.8888C32.0625 30.8475 32.085 30.8063 32.1038 30.765C32.385 30.1275 32.4 29.4188 32.1488 28.77C32.0775 28.5863 31.9838 28.41 31.875 28.2488C31.6012 27.8475 31.2225 27.5288 30.7688 27.3263C30.6975 27.2963 30.63 27.27 30.5588 27.2475C29.9775 27.0488 29.3513 27.06 28.7738 27.2813C28.695 27.315 28.6163 27.3487 28.545 27.3862C28.0313 27.645 27.6375 28.0538 27.39 28.5375C27.2063 28.9013 27.1125 29.3025 27.1125 29.7188C27.1125 29.9963 27.1575 30.2813 27.2512 30.555C27.0562 30.6525 26.8575 30.7388 26.6513 30.8175C26.055 31.05 25.4363 31.2037 24.8175 31.2712C24.2738 31.3312 23.73 31.3312 23.19 31.2712C22.4625 31.1887 21.7425 30.9975 21.0525 30.69C20.4638 30.4312 19.9237 30.1013 19.4325 29.715C19.1775 29.5125 18.9375 29.2913 18.7125 29.0588C18.5625 28.8975 18.42 28.7363 18.285 28.5675C17.8275 27.9938 17.4562 27.3487 17.1825 26.6475C16.9462 26.0437 16.8 25.4287 16.7288 24.8137C16.6688 24.27 16.6725 23.7225 16.7325 23.1863H6.825L6.8325 20.7037V20.7C6.8325 20.4 7.07625 20.1563 7.37625 20.1563H7.38L10.4175 20.1638C11.1863 20.1675 11.88 19.7063 12.18 18.9975L12.1913 18.9713C12.4913 18.2588 12.3338 17.43 11.7825 16.8787L9.69375 14.7788C9.585 14.6738 9.5325 14.535 9.5325 14.3962C9.5325 14.2575 9.585 14.1188 9.69375 14.01V14.0062L11.2837 12.4275L12.4387 11.2763L14.1975 9.525C14.4075 9.315 14.7525 9.315 14.9663 9.52875L17.13 11.7C17.6438 12.2175 18.42 12.3713 19.0913 12.09L19.1175 12.0787C19.7813 11.8012 20.2163 11.1525 20.2163 10.4288L20.2237 7.36125C20.2237 7.06125 20.4675 6.8175 20.7675 6.8175L23.19 6.82125V15.09C22.38 15.1613 21.5625 15.3525 20.7638 15.66C20.4113 15.795 20.0738 15.9525 19.7513 16.125C19.065 15.6638 18.1725 15.5325 17.3438 15.8513C17.265 15.885 17.1863 15.915 17.1113 15.9525C16.6125 16.2038 16.2113 16.605 15.96 17.1075C15.9413 17.1487 15.9188 17.19 15.9038 17.2312C15.7575 17.5687 15.6788 17.925 15.6788 18.2813C15.6788 18.6 15.735 18.9188 15.855 19.2263C15.93 19.41 16.02 19.59 16.1325 19.7513C16.4025 20.1525 16.7775 20.4675 17.235 20.6663C17.3062 20.7 17.3775 20.7225 17.445 20.7488C18.0263 20.9475 18.6525 20.9325 19.2263 20.7075C19.3088 20.6738 19.3838 20.6438 19.4588 20.6063C19.9688 20.3475 20.3662 19.935 20.61 19.4513C20.9137 18.8438 20.985 18.12 20.7525 17.4375C20.9475 17.34 21.1462 17.2538 21.3487 17.175C21.9562 16.9388 22.5713 16.7887 23.1863 16.7212C23.7338 16.6612 24.2775 16.6612 24.8137 16.7212C26.1862 16.8787 27.4875 17.4188 28.5637 18.2775C28.9875 18.615 29.3738 18.9975 29.7188 19.425C30.1725 19.9912 30.5437 20.6325 30.825 21.345C31.0537 21.9412 31.2075 22.56 31.2788 23.1788C31.3125 23.4525 31.3237 23.7225 31.3237 23.9963C31.3237 24.2663 31.3088 24.54 31.2788 24.8063H41.1788L41.1713 27.2963ZM41.1788 23.1825H32.9137C32.8387 22.3612 32.6475 21.5475 32.34 20.76C31.98 19.8338 31.4812 18.9975 30.8775 18.2738C30.5287 17.8538 30.1425 17.4675 29.7262 17.1225C28.335 15.9675 26.6175 15.255 24.8175 15.0863V6.825L27.12 6.82875C27.42 6.82875 27.6637 7.0725 27.6637 7.3725V7.37625L27.66 10.1625C27.6563 10.9725 28.1513 11.7075 28.905 12.0075L28.9313 12.0188C29.6663 12.315 30.5062 12.1425 31.065 11.5838L33.0975 9.55875C33.2025 9.45 33.3413 9.3975 33.48 9.3975C33.6188 9.3975 33.7575 9.45 33.8663 9.55875H33.87L35.5762 11.2763L36.7275 12.4313L38.3513 14.0625H38.355C38.565 14.2725 38.565 14.6175 38.3513 14.8313V14.835L36.4688 16.71C35.8538 17.3213 35.6925 18.24 36.0263 19.0388C36.0338 19.0463 36.0338 19.0575 36.0375 19.065C36.3675 19.86 37.1288 20.3925 37.9875 20.3925L40.6462 20.4C40.9462 20.4 41.19 20.6437 41.19 20.9437V20.9513L41.1788 23.1825Z" fill="#4536E3"/>
</g>
<defs>
<radialGradient id="paint0_radial_2633_231" cx="0" cy="0" r="1" gradientUnits="userSpaceOnUse" gradientTransform="translate(24 24) rotate(90) scale(69.7167)">
<stop offset="0.1875" stop-color="#0FD4F2"/>
<stop offset="1" stop-color="white" stop-opacity="0"/>
</radialGradient>
<clipPath id="clip0_2633_231">
<rect width="48" height="48" fill="white"/>
</clipPath>
</defs>
</svg>
